HIERARCHY
ROOT Hips
{
 OFFSET 0.000000 0.000000 0.000000
 CHANNELS 6 Xposition Yposition Zposition Yrotation Xrotation Zrotation
 JOINT Chest
 {
  OFFSET 0.000000 9.588913 -0.003946
  CHANNELS 3 Yrotation Xrotation Zrotation
  JOINT Chest2
  {
   OFFSET 0.000000 9.541882 0.008053
   CHANNELS 3 Yrotation Xrotation Zrotation
   JOINT Chest3
   {
    OFFSET 0.000000 9.501360 0.000000
    CHANNELS 3 Yrotation Xrotation Zrotation
    JOINT Chest4
    {
     OFFSET 0.000000 9.491660 0.000000
     CHANNELS 3 Yrotation Xrotation Zrotation
     JOINT Neck
     {
      OFFSET 0.000000 14.331917 0.000000
      CHANNELS 3 Yrotation Xrotation Zrotation
      JOINT Head
      {
       OFFSET 0.000000 8.884799 0.017034
       CHANNELS 3 Yrotation Xrotation Zrotation
       End Site
       {
        OFFSET 0.000000 16.896195 0.008993
       }
      }
     }
     JOINT RightCollar
     {
      OFFSET -2.923010 9.499495 0.000000
      CHANNELS 3 Yrotation Xrotation Zrotation
      JOINT RightShoulder
      {
       OFFSET -13.795216 0.000000 0.000000
       CHANNELS 3 Yrotation Xrotation Zrotation
       JOINT RightElbow
       {
        OFFSET -30.272209 0.000000 0.000000
        CHANNELS 3 Yrotation Xrotation Zrotation
        JOINT RightWrist
        {
         OFFSET -24.478199 0.000000 0.000000
         CHANNELS 3 Yrotation Xrotation Zrotation
         End Site
         {
          OFFSET -18.090752 0.000000 0.000000
         }
        }
       }
      }
     }
     JOINT LeftCollar
     {
      OFFSET 2.923010 9.499495 0.000000
      CHANNELS 3 Yrotation Xrotation Zrotation
      JOINT LeftShoulder
      {
       OFFSET 13.795216 0.000000 0.000000
       CHANNELS 3 Yrotation Xrotation Zrotation
       JOINT LeftElbow
       {
        OFFSET 30.272209 0.000000 0.000000
        CHANNELS 3 Yrotation Xrotation Zrotation
        JOINT LeftWrist
        {
         OFFSET 24.478199 0.000000 0.000000
         CHANNELS 3 Yrotation Xrotation Zrotation
         End Site
         {
          OFFSET 18.090752 0.000000 0.000000
         }
        }
       }
      }
     }
    }
   }
  }
 }
 JOINT RightHip
 {
  OFFSET -7.826875 0.019532 0.001973
  CHANNELS 3 Yrotation Xrotation Zrotation
  JOINT RightKnee
  {
   OFFSET 0.000000 -40.546152 -0.001885
   CHANNELS 3 Yrotation Xrotation Zrotation
   JOINT RightAnkle
   {
    OFFSET 0.000000 -39.417092 -0.003189
    CHANNELS 3 Yrotation Xrotation Zrotation
    JOINT RightToe
    {
     OFFSET 0.000000 -7.579396 17.243563
     CHANNELS 3 Yrotation Xrotation Zrotation
     End Site
     {
      OFFSET 0.000000 -1.500329 6.694466
     }
    }
   }
  }
 }
 JOINT LeftHip
 {
  OFFSET 7.826875 0.019532 0.001973
  CHANNELS 3 Yrotation Xrotation Zrotation
  JOINT LeftKnee
  {
   OFFSET 0.000000 -40.546152 -0.001885
   CHANNELS 3 Yrotation Xrotation Zrotation
   JOINT LeftAnkle
   {
    OFFSET 0.000000 -39.417092 -0.003189
    CHANNELS 3 Yrotation Xrotation Zrotation
    JOINT LeftToe
    {
     OFFSET 0.000000 -7.579396 17.243563
     CHANNELS 3 Yrotation Xrotation Zrotation
     End Site
     {
      OFFSET 0.000000 -1.500329 6.694466
     }
    }
   }
  }
 }
}
MOTION
Frames: 17
Frame Time: 0.008333
-25.690512 87.865582 -0.243803 -142.361608 -7.791082 -1.747823 2.204981 2.271332 -2.654287 1.248247 1.279268 -1.421948 1.555415 1.603872 -1.773164 1.248247 1.279268 -1.421948 -2.288588 27.336011 9.592123 -4.760677 5.086903 11.332647 6.366307 -10.460217 -13.622499 14.917069 -50.385331 22.851805 87.906665 -9.061878 11.159594 32.796503 -9.712209 -7.727752 0.307297 -0.265733 3.456141 4.276732 0.082912 -85.941355 0.727797 -1.096855 0.846418 -2.131264 1.237947 1.786716 -5.338464 13.403679 -8.363132 -4.069833 2.644074 -1.307844 1.085406 -7.034649 7.942522 0.033616 -0.257721 0.016130 22.235224 13.741859 13.509471 13.567139 -2.514145 -0.756452 -4.215069 -3.976759 -9.300236 0.045889 0.268598 0.019275
-25.692104 87.865474 -0.244331 -142.359372 -7.798422 -1.747497 2.203184 2.273649 -2.651152 1.247693 1.280538 -1.420286 1.554724 1.605451 -1.771084 1.247693 1.280538 -1.420286 -2.283387 27.335332 9.590916 -4.754496 5.085430 11.329878 6.384520 -10.455871 -13.629551 14.929900 -50.381959 22.831336 87.884226 -9.023865 11.086002 32.723258 -9.712598 -7.718553 0.302703 -0.271093 3.452660 4.273127 0.079881 -85.936261 0.729736 -1.088280 0.853609 -2.131099 1.233929 1.781411 -5.337893 13.409389 -8.364616 -4.068967 2.651261 -1.307867 1.084387 -7.037702 7.943496 0.032898 -0.256826 0.015370 22.242181 13.747871 13.512758 13.554959 -2.514373 -0.756284 -4.216113 -3.978747 -9.298250 0.045064 0.271347 0.018706
-25.693228 87.865369 -0.245007 -142.354953 -7.804313 -1.748918 2.201265 2.274627 -2.648113 1.246815 1.280960 -1.418686 1.553629 1.605970 -1.769086 1.246815 1.280960 -1.418686 -2.278344 27.334447 9.592311 -4.749115 5.084065 11.330207 6.396370 -10.448891 -13.636079 14.946893 -50.372377 22.808467 87.865927 -8.975861 10.994503 32.652539 -9.710068 -7.710184 0.297599 -0.273603 3.450127 4.274118 0.073122 -85.931322 0.732607 -1.073510 0.862544 -2.126975 1.230942 1.774092 -5.339069 13.414276 -8.364353 -4.069250 2.657760 -1.307582 1.084459 -7.039949 7.944598 0.032150 -0.256276 0.014244 22.246751 13.751504 13.516038 13.539123 -2.514431 -0.753205 -4.213172 -3.982386 -9.298451 0.044641 0.274728 0.018468
-25.694171 87.865235 -0.245494 -142.347756 -7.808030 -1.749579 2.199109 2.275216 -2.646361 1.245518 1.280991 -1.417745 1.552011 1.606000 -1.767914 1.245518 1.280990 -1.417745 -2.273027 27.331483 9.596652 -4.744131 5.080394 11.333874 6.407038 -10.445926 -13.641738 14.952079 -50.354712 22.794407 87.856224 -8.923209 10.894913 32.586651 -9.699418 -7.702161 0.291771 -0.276726 3.448798 4.279953 0.063966 -85.925631 0.734926 -1.060327 0.870651 -2.119937 1.233489 1.769648 -5.344840 13.417414 -8.365857 -4.068251 2.663325 -1.306497 1.085721 -7.042556 7.943586 0.031846 -0.255301 0.014648 22.247303 13.752215 13.516338 13.526661 -2.512387 -0.749169 -4.209406 -3.987234 -9.298662 0.045089 0.278383 0.018313
-25.695109 87.865091 -0.245823 -142.337790 -7.810399 -1.748856 2.196491 2.276464 -2.645678 1.243643 1.281401 -1.417248 1.549668 1.606504 -1.767298 1.243643 1.281401 -1.417248 -2.267730 27.325567 9.602635 -4.739566 5.073135 11.339392 6.418002 -10.448222 -13.647483 14.944308 -50.332437 22.793759 87.852740 -8.863385 10.791565 32.524355 -9.682197 -7.697255 0.284837 -0.280710 3.446394 4.292377 0.051973 -85.919103 0.736280 -1.051729 0.876972 -2.115648 1.241630 1.768046 -5.355640 13.420130 -8.368788 -4.064870 2.666820 -1.306773 1.086761 -7.045259 7.941274 0.031896 -0.253976 0.016600 22.243753 13.751008 13.514321 13.518604 -2.507526 -0.747015 -4.204072 -3.992935 -9.296633 0.046171 0.282165 0.017919
-25.696058 87.864998 -0.246254 -142.324700 -7.812850 -1.747902 2.192811 2.278463 -2.645156 1.240985 1.282490 -1.416677 1.546344 1.607853 -1.766591 1.240985 1.282490 -1.416677 -2.262800 27.317473 9.608950 -4.735501 5.063136 11.345331 6.426436 -10.452893 -13.654767 14.930091 -50.314469 22.807476 87.844437 -8.796935 10.690292 32.464155 -9.670115 -7.698293 0.280831 -0.284510 3.441961 4.306161 0.037562 -85.912883 0.736662 -1.046014 0.880761 -2.116061 1.247162 1.770120 -5.368174 13.423214 -8.370771 -4.062616 2.670828 -1.309217 1.086083 -7.048514 7.940002 0.031932 -0.253096 0.018170 22.232193 13.750825 13.511416 13.516711 -2.501687 -0.747369 -4.196970 -3.998395 -9.292778 0.047573 0.285671 0.017543
-25.696894 87.864989 -0.246803 -142.309568 -7.815252 -1.747567 2.188210 2.281195 -2.645250 1.237861 1.283978 -1.416223 1.542434 1.609700 -1.766029 1.237861 1.283978 -1.416223 -2.257002 27.308037 9.616026 -4.730635 5.051438 11.351906 6.432088 -10.458725 -13.660339 14.911047 -50.305933 22.831445 87.823934 -8.735749 10.599567 32.400772 -9.665956 -7.699913 0.279804 -0.289491 3.437203 4.317594 0.023955 -85.905341 0.735321 -1.042874 0.880285 -2.119783 1.245552 1.777408 -5.379421 13.425432 -8.371566 -4.063525 2.677918 -1.311689 1.084557 -7.052951 7.939794 0.031956 -0.253100 0.018518 22.212104 13.753027 13.507825 13.523438 -2.497987 -0.749126 -4.191000 -4.001765 -9.289156 0.049232 0.288471 0.017922
-25.697484 87.865083 -0.247366 -142.299242 -7.817023 -1.747514 2.184255 2.283860 -2.645829 1.235291 1.285375 -1.416122 1.539216 1.611435 -1.765908 1.235291 1.285375 -1.416122 -2.248801 27.298366 9.623637 -4.723175 5.039316 11.358490 6.441144 -10.464567 -13.662094 14.885711 -50.307205 22.857363 87.790603 -8.696099 10.523689 32.324007 -9.665002 -7.691820 0.280756 -0.295507 3.434767 4.324751 0.012088 -85.897035 0.734247 -1.047519 0.876675 -2.129252 1.238229 1.787061 -5.383314 13.426716 -8.371443 -4.064570 2.685109 -1.312887 1.081714 -7.056597 7.940073 0.031844 -0.253553 0.017888 22.196013 13.755538 13.505315 13.532684 -2.496080 -0.751123 -4.188268 -4.003265 -9.287438 0.050071 0.289948 0.019246
-25.697813 87.865315 -0.247980 -142.296997 -7.818556 -1.747724 2.182331 2.285164 -2.645833 1.234056 1.286185 -1.416035 1.537670 1.612443 -1.765801 1.234056 1.286185 -1.416035 -2.239475 27.290327 9.630592 -4.714282 5.029123 11.364063 6.453946 -10.467977 -13.660771 14.856440 -50.314012 22.879914 87.744749 -8.681076 10.458985 32.233411 -9.666395 -7.672038 0.283750 -0.301778 3.435639 4.325814 0.004297 -85.891050 0.733613 -1.060368 0.872976 -2.143436 1.230669 1.796292 -5.377340 13.427715 -8.369765 -4.064274 2.690868 -1.313379 1.076640 -7.058268 7.941251 0.031582 -0.254081 0.016344 22.189419 13.757463 13.504218 13.540823 -2.494709 -0.752023 -4.186738 -4.003832 -9.287263 0.049673 0.290165 0.020561
-25.697862 87.865685 -0.248573 -142.300071 -7.819539 -1.748421 2.183197 2.285035 -2.645633 1.234645 1.286208 -1.415945 1.538406 1.612474 -1.765685 1.234645 1.286208 -1.415945 -2.231246 27.284479 9.637678 -4.706660 5.021872 11.370135 6.456866 -10.467392 -13.655732 14.834062 -50.324541 22.900265 87.687478 -8.676828 10.399508 32.137645 -9.671916 -7.646209 0.278829 -0.307483 3.439150 4.330840 0.001165 -85.887784 0.731077 -1.072774 0.870029 -2.156912 1.229541 1.803423 -5.366132 13.426540 -8.367182 -4.065927 2.698329 -1.312728 1.073144 -7.059706 7.942161 0.031604 -0.254486 0.014598 22.191527 13.758379 13.505256 13.543178 -2.494641 -0.752536 -4.185871 -4.003025 -9.287012 0.048573 0.289166 0.020837
-25.697604 87.866169 -0.249053 -142.306501 -7.819548 -1.749479 2.186778 2.283866 -2.646117 1.237001 1.285582 -1.416171 1.541353 1.611701 -1.765962 1.237001 1.285582 -1.416171 -2.224058 27.280368 9.646130 -4.700539 5.017141 11.378134 6.447229 -10.463158 -13.646431 14.819391 -50.338005 22.921519 87.622746 -8.669304 10.342053 32.042944 -9.677408 -7.617466 0.262125 -0.312066 3.444751 4.342593 -0.000501 -85.885533 0.727840 -1.080849 0.868357 -2.165695 1.236459 1.806461 -5.353595 13.421877 -8.364082 -4.070704 2.709011 -1.311522 1.073634 -7.062183 7.941336 0.031951 -0.254616 0.013928 22.201835 13.757317 13.508882 13.539163 -2.495267 -0.753132 -4.188942 -4.001271 -9.286085 0.047170 0.287074 0.019837
-25.697369 87.866757 -0.249415 -142.310179 -7.819820 -1.749884 2.190069 2.282462 -2.647207 1.239046 1.284900 -1.416811 1.543910 1.610858 -1.766757 1.239046 1.284900 -1.416811 -2.216920 27.278115 9.654432 -4.694436 5.014797 11.386024 6.436268 -10.457630 -13.634337 14.803080 -50.350683 22.946671 87.555785 -8.647167 10.286038 31.953963 -9.673299 -7.589620 0.243356 -0.318974 3.451259 4.350704 -0.000066 -85.881811 0.726202 -1.083667 0.867402 -2.167128 1.246644 1.805704 -5.346649 13.417400 -8.361863 -4.073225 2.719401 -1.311702 1.073867 -7.064885 7.939866 0.032500 -0.254829 0.014467 22.209167 13.756350 13.510140 13.534317 -2.495816 -0.752262 -4.188900 -3.998845 -9.285156 0.046720 0.285032 0.019019
-25.697235 87.867420 -0.249742 -142.309388 -7.821191 -1.749568 2.191229 2.281934 -2.648228 1.239615 1.284815 -1.417451 1.544620 1.610756 -1.767555 1.239615 1.284815 -1.417451 -2.208811 27.277353 9.660751 -4.686757 5.014028 11.391375 6.429202 -10.453389 -13.622251 14.781738 -50.361769 22.975553 87.490027 -8.606426 10.231616 31.877941 -9.654478 -7.568839 0.228259 -0.329838 3.457567 4.351614 0.002357 -85.878722 0.726268 -1.082432 0.868122 -2.162025 1.259119 1.803242 -5.346273 13.416397 -8.360915 -4.072021 2.725357 -1.313188 1.072256 -7.065838 7.939296 0.033053 -0.255472 0.014972 22.208704 13.757586 13.507500 13.531676 -2.497447 -0.750080 -4.181022 -3.994849 -9.285337 0.047569 0.283528 0.019802
-25.696909 87.868067 -0.249884 -142.308753 -7.822133 -1.748654 2.191220 2.281796 -2.648325 1.239468 1.285065 -1.417574 1.544434 1.611069 -1.767709 1.239468 1.285065 -1.417574 -2.199259 27.277287 9.663994 -4.676708 5.013616 11.392755 6.429195 -10.452379 -13.614162 14.759664 -50.370510 23.001732 87.418032 -8.550578 10.178670 31.826655 -9.625168 -7.560975 0.215260 -0.341075 3.461543 4.349034 0.002578 -85.878453 0.728084 -1.076869 0.872656 -2.153329 1.275178 1.796043 -5.344538 13.416840 -8.359514 -4.071645 2.727303 -1.316524 1.071206 -7.064816 7.941128 0.033221 -0.256205 0.014417 22.204639 13.760499 13.503193 13.531178 -2.501573 -0.747642 -4.171909 -3.988906 -9.287710 0.048256 0.281829 0.021922
-25.696585 87.868641 -0.249742 -142.308476 -7.822890 -1.745896 2.190783 2.281244 -2.647678 1.239024 1.285165 -1.417559 1.543879 1.611193 -1.767691 1.239024 1.285165 -1.417559 -2.189230 27.277970 9.664176 -4.665388 5.013709 11.390430 6.434122 -10.454011 -13.610827 14.745559 -50.376019 23.019774 87.330842 -8.485300 10.127535 31.806015 -9.596012 -7.563883 0.201846 -0.349804 3.462373 4.346291 -0.001467 -85.877658 0.732562 -1.067295 0.878681 -2.143271 1.293836 1.782363 -5.339886 13.418556 -8.359480 -4.073004 2.726501 -1.320645 1.070935 -7.063054 7.945363 0.033311 -0.256445 0.012794 22.197080 13.764473 13.496647 13.530485 -2.505475 -0.743829 -4.163589 -3.983068 -9.291937 0.048226 0.279691 0.024092
-25.696232 87.869140 -0.249684 -142.306098 -7.824839 -1.743328 2.191272 2.280490 -2.646977 1.238999 1.285077 -1.417507 1.543848 1.611082 -1.767627 1.238999 1.285077 -1.417507 -2.181273 27.278593 9.663629 -4.656243 5.013794 11.387774 6.433527 -10.456139 -13.608594 14.739005 -50.383281 23.030376 87.229296 -8.423643 10.086924 31.809528 -9.572076 -7.570095 0.185913 -0.356169 3.463371 4.345560 -0.007434 -85.875592 0.737857 -1.054978 0.884293 -2.133524 1.307795 1.769620 -5.334877 13.423513 -8.359551 -4.075225 2.722851 -1.324202 1.070358 -7.060264 7.949938 0.033435 -0.256696 0.011178 22.186106 13.767715 13.490415 13.529727 -2.505025 -0.739077 -4.155059 -3.980623 -9.295655 0.047922 0.278489 0.025044
-25.695581 87.869496 -0.249585 -142.303104 -7.826113 -1.741845 2.193135 2.279757 -2.645957 1.239818 1.284897 -1.417212 1.544874 1.610859 -1.767255 1.239818 1.284897 -1.417212 -2.176094 27.277348 9.662732 -4.650165 5.011642 11.385359 6.425092 -10.460449 -13.607950 14.732762 -50.396403 23.037934 87.119059 -8.378058 10.066589 31.821227 -9.550839 -7.577214 0.168629 -0.363599 3.464764 4.348386 -0.011114 -85.874024 0.739345 -1.038804 0.889512 -2.125026 1.312155 1.761029 -5.328837 13.427751 -8.357216 -4.077790 2.719501 -1.329777 1.069598 -7.057632 7.954725 0.033190 -0.257013 0.010442 22.174053 13.767862 13.486018 13.529963 -2.499733 -0.735920 -4.146817 -3.982217 -9.297403 0.047603 0.278521 0.024962
